<svg xmlns="http://www.w3.org/2000/svg" xmlns:xlink="http://www.w3.org/1999/xlink" width="500" zoomAndPan="magnify" viewBox="0 0 375 149.999998" height="200" preserveAspectRatio="xMidYMid meet" version="1.0"><defs><g/><clipPath id="10de49409a"><path d="M 150 33 L 274.160156 33 L 274.160156 115 L 150 115 Z M 150 33 " clip-rule="nonzero"/></clipPath><clipPath id="26a7c41fd3"><rect x="0" width="125" y="0" height="82"/></clipPath><clipPath id="1d67f32d0c"><path d="M 0.320312 0 L 165 0 L 165 149.28125 L 0.320312 149.28125 Z M 0.320312 0 " clip-rule="nonzero"/></clipPath><clipPath id="bd3b0dd53d"><rect x="0" width="165" y="0" height="150"/></clipPath><clipPath id="5619c6b505"><rect x="0" width="275" y="0" height="150"/></clipPath></defs><g transform="matrix(1, 0, 0, 1, 52, -0.000000000000007527)"><g clip-path="url(#5619c6b505)"><g clip-path="url(#10de49409a)"><g transform="matrix(1, 0, 0, 1, 150, 33)"><g clip-path="url(#26a7c41fd3)"><g fill="#1e1e1e" fill-opacity="1"><g transform="translate(1.715427, 63.827002)"><g><path d="M 3.25 -10.921875 C 1.5625 -13.972656 0.546875 -17.082031 0.203125 -20.25 C -0.140625 -23.414062 0.0820312 -26.457031 0.875 -29.375 C 1.664062 -32.300781 2.863281 -34.925781 4.46875 -37.25 C 6.070312 -39.570312 7.957031 -41.390625 10.125 -42.703125 C 13.070312 -44.503906 16.367188 -45.40625 20.015625 -45.40625 C 20.753906 -45.40625 21.6875 -45.242188 22.8125 -44.921875 C 23.945312 -44.609375 25.132812 -44.28125 26.375 -43.9375 C 27.613281 -43.59375 28.800781 -43.394531 29.9375 -43.34375 C 31.070312 -43.289062 32.035156 -43.5 32.828125 -43.96875 C 33.617188 -44.445312 34.117188 -45.347656 34.328125 -46.671875 C 34.585938 -48.566406 34.640625 -50.617188 34.484375 -52.828125 C 34.328125 -55.046875 34.195312 -57.128906 34.09375 -59.078125 C 34.039062 -60.398438 34.300781 -61.242188 34.875 -61.609375 C 35.457031 -61.984375 36.234375 -62.144531 37.203125 -62.09375 C 38.179688 -62.039062 39.171875 -61.988281 40.171875 -61.9375 C 41.128906 -61.9375 42.03125 -62 42.875 -62.125 C 43.71875 -62.257812 44.398438 -62.191406 44.921875 -61.921875 C 45.453125 -61.660156 45.71875 -60.875 45.71875 -59.5625 C 45.71875 -54.707031 45.71875 -49.851562 45.71875 -45 C 45.71875 -40.15625 45.71875 -35.304688 45.71875 -30.453125 C 45.664062 -25.972656 45.769531 -21.476562 46.03125 -16.96875 C 46.289062 -12.457031 46.210938 -7.960938 45.796875 -3.484375 C 45.691406 -2.316406 45.320312 -1.5625 44.6875 -1.21875 C 44.050781 -0.882812 43.285156 -0.78125 42.390625 -0.90625 C 41.492188 -1.039062 40.570312 -1.265625 39.625 -1.578125 C 38.675781 -1.898438 37.804688 -2.113281 37.015625 -2.21875 C 35.066406 -2.476562 33.25 -2.503906 31.5625 -2.296875 C 29.875 -2.085938 28.109375 -1.613281 26.265625 -0.875 C 23.304688 0.238281 20.242188 0.425781 17.078125 -0.3125 C 14.179688 -0.945312 11.492188 -2.226562 9.015625 -4.15625 C 6.535156 -6.082031 4.613281 -8.335938 3.25 -10.921875 Z M 23.25 -36.21875 C 21.25 -36.21875 19.363281 -35.570312 17.59375 -34.28125 C 15.832031 -32.988281 14.394531 -31.316406 13.28125 -29.265625 C 12.175781 -27.210938 11.625 -25.023438 11.625 -22.703125 C 11.625 -20.484375 12.164062 -18.382812 13.25 -16.40625 C 14.332031 -14.4375 15.753906 -12.832031 17.515625 -11.59375 C 19.285156 -10.351562 21.171875 -9.707031 23.171875 -9.65625 L 23.484375 -9.65625 C 26.179688 -9.65625 28.503906 -10.628906 30.453125 -12.578125 C 32.929688 -15.160156 34.171875 -18.5625 34.171875 -22.78125 C 34.171875 -26.675781 33.164062 -29.875 31.15625 -32.375 C 29.15625 -34.882812 26.570312 -36.164062 23.40625 -36.21875 Z M 23.25 -36.21875 "/></g></g></g><g fill="#1e1e1e" fill-opacity="1"><g transform="translate(48.061481, 63.827002)"><g><path d="M 11.78125 -1.109375 C 11.414062 -0.628906 10.890625 -0.363281 10.203125 -0.3125 C 9.515625 -0.257812 8.800781 -0.179688 8.0625 -0.078125 C 7.382812 -0.0234375 6.582031 0.0234375 5.65625 0.078125 C 4.726562 0.128906 3.851562 0.0390625 3.03125 -0.1875 C 2.21875 -0.425781 1.601562 -0.914062 1.1875 -1.65625 C 0.550781 -2.820312 0.179688 -4.101562 0.078125 -5.5 C -0.0234375 -6.894531 0 -8.316406 0.15625 -9.765625 C 0.3125 -11.210938 0.390625 -12.570312 0.390625 -13.84375 C 0.441406 -16.320312 0.476562 -18.785156 0.5 -21.234375 C 0.53125 -23.691406 0.570312 -26.15625 0.625 -28.625 C 0.6875 -33.53125 0.703125 -38.445312 0.671875 -43.375 C 0.640625 -48.3125 0.570312 -53.234375 0.46875 -58.140625 C 0.46875 -59.503906 0.757812 -60.488281 1.34375 -61.09375 C 1.925781 -61.707031 2.691406 -62.066406 3.640625 -62.171875 C 4.585938 -62.273438 5.613281 -62.242188 6.71875 -62.078125 C 7.832031 -61.921875 8.890625 -61.789062 9.890625 -61.6875 C 10.992188 -61.582031 11.71875 -60.988281 12.0625 -59.90625 C 12.40625 -58.832031 12.5625 -57.675781 12.53125 -56.4375 C 12.507812 -55.195312 12.472656 -54.207031 12.421875 -53.46875 C 12.316406 -51.039062 12.25 -48.585938 12.21875 -46.109375 C 12.195312 -43.628906 12.1875 -41.148438 12.1875 -38.671875 C 12.1875 -32.660156 12.1875 -26.648438 12.1875 -20.640625 C 12.1875 -14.628906 12.1875 -8.617188 12.1875 -2.609375 C 12.1875 -1.972656 12.050781 -1.472656 11.78125 -1.109375 Z M 11.78125 -1.109375 "/></g></g></g><g fill="#1e1e1e" fill-opacity="1"><g transform="translate(60.793979, 63.827002)"><g><path d="M 12.015625 16.84375 C 10.703125 16.84375 9.382812 16.695312 8.0625 16.40625 C 6.75 16.125 5.484375 15.691406 4.265625 15.109375 C 3.054688 14.523438 2.144531 13.769531 1.53125 12.84375 C 0.925781 11.925781 0.992188 10.804688 1.734375 9.484375 C 2.421875 8.273438 3.039062 7.285156 3.59375 6.515625 C 4.144531 5.753906 4.800781 5.269531 5.5625 5.0625 C 6.332031 4.851562 7.378906 5.035156 8.703125 5.609375 C 9.753906 6.035156 10.832031 6.101562 11.9375 5.8125 C 13.050781 5.519531 13.945312 4.953125 14.625 4.109375 C 15.46875 3.160156 15.847656 2.238281 15.765625 1.34375 C 15.691406 0.445312 15.65625 -0.550781 15.65625 -1.65625 C 15.65625 -2.925781 15.328125 -4.257812 14.671875 -5.65625 C 14.015625 -7.050781 13.472656 -8.328125 13.046875 -9.484375 C 12.523438 -10.960938 11.972656 -12.441406 11.390625 -13.921875 C 10.804688 -15.398438 10.226562 -16.875 9.65625 -18.34375 C 8.488281 -21.40625 7.335938 -24.453125 6.203125 -27.484375 C 5.078125 -30.515625 3.929688 -33.5625 2.765625 -36.625 C 2.398438 -37.726562 1.910156 -38.804688 1.296875 -39.859375 C 0.691406 -40.910156 0.285156 -42.019531 0.078125 -43.1875 C -0.128906 -44.289062 0.132812 -45.015625 0.875 -45.359375 C 1.613281 -45.703125 2.519531 -45.859375 3.59375 -45.828125 C 4.675781 -45.804688 5.585938 -45.796875 6.328125 -45.796875 C 7.015625 -45.796875 7.695312 -45.753906 8.375 -45.671875 C 9.0625 -45.597656 9.722656 -45.398438 10.359375 -45.078125 C 11.460938 -44.554688 12.367188 -43.539062 13.078125 -42.03125 C 13.796875 -40.53125 14.40625 -38.9375 14.90625 -37.25 C 15.40625 -35.5625 15.84375 -34.164062 16.21875 -33.0625 C 16.957031 -31.269531 17.691406 -29.460938 18.421875 -27.640625 C 19.160156 -25.828125 20.0625 -24.078125 21.125 -22.390625 C 22.019531 -20.960938 22.914062 -20.421875 23.8125 -20.765625 C 24.707031 -21.109375 25.414062 -21.9375 25.9375 -23.25 C 27.257812 -26.519531 28.566406 -29.789062 29.859375 -33.0625 C 31.148438 -36.332031 32.453125 -39.578125 33.765625 -42.796875 C 33.878906 -43.210938 34.023438 -43.59375 34.203125 -43.9375 C 34.390625 -44.28125 34.640625 -44.582031 34.953125 -44.84375 C 35.378906 -45.101562 35.816406 -45.273438 36.265625 -45.359375 C 36.710938 -45.441406 37.175781 -45.484375 37.65625 -45.484375 C 38.757812 -45.535156 39.847656 -45.570312 40.921875 -45.59375 C 42.003906 -45.625 43.078125 -45.613281 44.140625 -45.5625 C 44.453125 -45.5625 44.753906 -45.546875 45.046875 -45.515625 C 45.335938 -45.492188 45.585938 -45.375 45.796875 -45.15625 C 46.210938 -44.84375 46.378906 -44.394531 46.296875 -43.8125 C 46.222656 -43.238281 46.082031 -42.710938 45.875 -42.234375 C 42.976562 -34.960938 40.050781 -27.703125 37.09375 -20.453125 C 34.144531 -13.203125 31.269531 -5.9375 28.46875 1.34375 C 27.84375 3.03125 27.210938 4.753906 26.578125 6.515625 C 25.941406 8.285156 25.070312 9.882812 23.96875 11.3125 C 22.539062 13.101562 20.769531 14.457031 18.65625 15.375 C 16.550781 16.300781 14.335938 16.789062 12.015625 16.84375 Z M 12.015625 16.84375 "/></g></g></g><g fill="#1e1e1e" fill-opacity="1"><g transform="translate(107.298221, 63.827002)"><g><path d="M 2.21875 -12.09375 C 3.113281 -13 4.207031 -13.632812 5.5 -14 C 6.789062 -14.363281 8.066406 -14.335938 9.328125 -13.921875 C 11.117188 -13.390625 12.503906 -12.320312 13.484375 -10.71875 C 14.460938 -9.113281 14.738281 -7.382812 14.3125 -5.53125 C 14.101562 -4.375 13.578125 -3.304688 12.734375 -2.328125 C 11.890625 -1.359375 10.890625 -0.660156 9.734375 -0.234375 C 8.046875 0.335938 6.410156 0.285156 4.828125 -0.390625 C 3.242188 -1.078125 1.988281 -2.160156 1.0625 -3.640625 C 0.144531 -5.117188 -0.15625 -6.726562 0.15625 -8.46875 C 0.46875 -9.9375 1.15625 -11.144531 2.21875 -12.09375 Z M 2.21875 -12.09375 "/></g></g></g></g></g></g><g clip-path="url(#1d67f32d0c)"><g transform="matrix(1, 0, 0, 1, 0, -0.000000000000007527)"><g clip-path="url(#bd3b0dd53d)"><g fill="#5329c8" fill-opacity="1"><g transform="translate(0.73157, 98.232544)"><g><path d="M 60.21875 -33.703125 C 60.4375 -33.785156 60.804688 -33.828125 61.328125 -33.828125 C 62.429688 -33.828125 63.28125 -33.457031 63.875 -32.71875 C 64.46875 -31.976562 64.765625 -30.976562 64.765625 -29.71875 C 64.765625 -27.425781 64.316406 -25.632812 63.421875 -24.34375 C 62.535156 -23.050781 61.207031 -22.109375 59.4375 -21.515625 C 56.039062 -20.398438 52.414062 -19.84375 48.5625 -19.84375 C 45.3125 -19.84375 42.242188 -20.289062 39.359375 -21.1875 C 37.222656 -17.707031 34.859375 -14.117188 32.265625 -10.421875 C 29.304688 -6.210938 26.753906 -3.332031 24.609375 -1.78125 C 22.472656 -0.226562 20.035156 0.546875 17.296875 0.546875 C 14.265625 0.546875 11.878906 -0.632812 10.140625 -3 C 8.410156 -5.363281 7.320312 -9.09375 6.875 -14.1875 C 5.988281 -24.539062 5.546875 -33.597656 5.546875 -41.359375 L 5.546875 -45.25 C 5.617188 -47.6875 6.28125 -49.382812 7.53125 -50.34375 C 8.789062 -51.300781 10.679688 -51.78125 13.203125 -51.78125 C 15.117188 -51.78125 16.535156 -51.351562 17.453125 -50.5 C 18.378906 -49.65625 18.84375 -48.234375 18.84375 -46.234375 C 18.84375 -37.734375 19.363281 -26.679688 20.40625 -13.078125 C 24.84375 -19.660156 28.171875 -24.910156 30.390625 -28.828125 C 29.273438 -30.972656 28.71875 -33.523438 28.71875 -36.484375 C 28.71875 -38.992188 29.269531 -41.429688 30.375 -43.796875 C 31.488281 -46.160156 33.003906 -48.082031 34.921875 -49.5625 C 36.847656 -51.039062 39.03125 -51.78125 41.46875 -51.78125 C 43.613281 -51.78125 45.351562 -51.019531 46.6875 -49.5 C 48.019531 -47.988281 48.6875 -45.796875 48.6875 -42.921875 C 48.6875 -39.585938 47.796875 -35.78125 46.015625 -31.5 C 48.828125 -31.644531 52.5625 -32.195312 57.21875 -33.15625 Z M 60.21875 -33.703125 "/></g></g></g><g fill="#5329c8" fill-opacity="1"><g transform="translate(50.518041, 98.232544)"><g><path d="M 54.78125 -24.734375 C 55.738281 -24.734375 56.492188 -24.285156 57.046875 -23.390625 C 57.609375 -22.503906 57.890625 -21.285156 57.890625 -19.734375 C 57.890625 -16.773438 57.1875 -14.484375 55.78125 -12.859375 C 53.039062 -9.535156 49.175781 -6.46875 44.1875 -3.65625 C 39.195312 -0.851562 33.859375 0.546875 28.171875 0.546875 C 20.398438 0.546875 14.367188 -1.554688 10.078125 -5.765625 C 5.796875 -9.984375 3.65625 -15.75 3.65625 -23.0625 C 3.65625 -28.164062 4.726562 -32.914062 6.875 -37.3125 C 9.019531 -41.707031 11.992188 -45.195312 15.796875 -47.78125 C 19.609375 -50.375 23.914062 -51.671875 28.71875 -51.671875 C 33.007812 -51.671875 36.445312 -50.394531 39.03125 -47.84375 C 41.625 -45.300781 42.921875 -41.847656 42.921875 -37.484375 C 42.921875 -32.378906 41.085938 -27.992188 37.421875 -24.328125 C 33.765625 -20.671875 27.570312 -17.773438 18.84375 -15.640625 C 20.695312 -12.234375 24.210938 -10.53125 29.390625 -10.53125 C 32.710938 -10.53125 36.5 -11.691406 40.75 -14.015625 C 45 -16.347656 48.675781 -19.398438 51.78125 -23.171875 C 52.664062 -24.210938 53.664062 -24.734375 54.78125 -24.734375 Z M 26.828125 -40.8125 C 24.097656 -40.8125 21.789062 -39.21875 19.90625 -36.03125 C 18.019531 -32.851562 17.078125 -29.007812 17.078125 -24.5 L 17.078125 -24.28125 C 21.441406 -25.320312 24.878906 -26.875 27.390625 -28.9375 C 29.898438 -31.007812 31.15625 -33.414062 31.15625 -36.15625 C 31.15625 -37.550781 30.765625 -38.675781 29.984375 -39.53125 C 29.210938 -40.382812 28.160156 -40.8125 26.828125 -40.8125 Z M 26.828125 -40.8125 "/></g></g></g><g fill="#5329c8" fill-opacity="1"><g transform="translate(94.095062, 98.232544)"><g><path d="M 13.203125 0.546875 C 10.390625 0.546875 8.410156 -0.925781 7.265625 -3.875 C 6.117188 -6.832031 5.546875 -11.566406 5.546875 -18.078125 C 5.546875 -27.679688 6.910156 -36.8125 9.640625 -45.46875 C 10.304688 -47.613281 11.394531 -49.179688 12.90625 -50.171875 C 14.425781 -51.171875 16.554688 -51.671875 19.296875 -51.671875 C 20.773438 -51.671875 21.804688 -51.484375 22.390625 -51.109375 C 22.984375 -50.742188 23.28125 -50.046875 23.28125 -49.015625 C 23.28125 -47.828125 22.726562 -45.164062 21.625 -41.03125 C 20.882812 -38.070312 20.289062 -35.484375 19.84375 -33.265625 C 19.40625 -31.046875 19.035156 -28.3125 18.734375 -25.0625 C 21.179688 -31.414062 23.921875 -36.585938 26.953125 -40.578125 C 29.984375 -44.578125 32.957031 -47.425781 35.875 -49.125 C 38.789062 -50.820312 41.46875 -51.671875 43.90625 -51.671875 C 48.71875 -51.671875 51.125 -49.269531 51.125 -44.46875 C 51.125 -41.582031 50.3125 -36.367188 48.6875 -28.828125 C 47.28125 -22.398438 46.578125 -18.148438 46.578125 -16.078125 C 46.578125 -13.117188 47.648438 -11.640625 49.796875 -11.640625 C 51.265625 -11.640625 53.015625 -12.546875 55.046875 -14.359375 C 57.085938 -16.171875 59.804688 -19.109375 63.203125 -23.171875 C 64.085938 -24.210938 65.085938 -24.734375 66.203125 -24.734375 C 67.160156 -24.734375 67.914062 -24.285156 68.46875 -23.390625 C 69.03125 -22.503906 69.3125 -21.285156 69.3125 -19.734375 C 69.3125 -16.773438 68.609375 -14.484375 67.203125 -12.859375 C 64.023438 -8.941406 60.601562 -5.726562 56.9375 -3.21875 C 53.28125 -0.707031 49.125 0.546875 44.46875 0.546875 C 40.695312 0.546875 37.847656 -0.539062 35.921875 -2.71875 C 34.003906 -4.894531 33.046875 -8.054688 33.046875 -12.203125 C 33.046875 -14.265625 33.5625 -17.957031 34.59375 -23.28125 C 35.5625 -27.9375 36.046875 -31.15625 36.046875 -32.9375 C 36.046875 -34.113281 35.632812 -34.703125 34.8125 -34.703125 C 33.851562 -34.703125 32.503906 -33.460938 30.765625 -30.984375 C 29.035156 -28.515625 27.265625 -25.242188 25.453125 -21.171875 C 23.640625 -17.109375 22.175781 -12.820312 21.0625 -8.3125 C 20.25 -4.84375 19.304688 -2.5 18.234375 -1.28125 C 17.171875 -0.0625 15.492188 0.546875 13.203125 0.546875 Z M 13.203125 0.546875 "/></g></g></g></g></g></g></g></g></svg>